<svg width="207" height="28" viewBox="0 0 207 28" fill="none" xmlns="http://www.w3.org/2000/svg">
<path d="M15.332 9.33398C15.332 7.98633 14.9746 7.02539 14.2598 6.45117C13.5566 5.87695 12.5664 5.58984 11.2891 5.58984H6.24414V13.2188H11.2891C12.5664 13.2188 13.5566 12.9082 14.2598 12.2871C14.9746 11.666 15.332 10.6816 15.332 9.33398ZM20.6934 9.29883C20.6934 12.3574 19.9199 14.5195 18.373 15.7852C16.8262 17.0508 14.6172 17.6836 11.7461 17.6836H6.24414V27H0.865234V1.08984H12.1504C14.752 1.08984 16.8262 1.75781 18.373 3.09375C19.9199 4.42969 20.6934 6.49805 20.6934 9.29883ZM36.2148 23.1328C38.3594 23.1328 40.0586 22.3418 41.3125 20.7598C42.5781 19.1777 43.2109 16.9277 43.2109 14.0098C43.2109 11.1035 42.5781 8.85938 41.3125 7.27734C40.0586 5.68359 38.3594 4.88672 36.2148 4.88672C34.0703 4.88672 32.3594 5.67773 31.082 7.25977C29.8047 8.8418 29.166 11.0918 29.166 14.0098C29.166 16.9277 29.8047 19.1777 31.082 20.7598C32.3594 22.3418 34.0703 23.1328 36.2148 23.1328ZM48.625 14.0098C48.625 18.6621 47.3184 22.2246 44.7051 24.6973C42.748 26.7129 39.918 27.7207 36.2148 27.7207C32.5117 27.7207 29.6816 26.7129 27.7246 24.6973C25.0996 22.2246 23.7871 18.6621 23.7871 14.0098C23.7871 9.26367 25.0996 5.70117 27.7246 3.32227C29.6816 1.30664 32.5117 0.298828 36.2148 0.298828C39.918 0.298828 42.748 1.30664 44.7051 3.32227C47.3184 5.70117 48.625 9.26367 48.625 14.0098ZM58.1875 5.58984V12.5508H64.3223C65.541 12.5508 66.4551 12.4102 67.0645 12.1289C68.1426 11.6367 68.6816 10.6641 68.6816 9.21094C68.6816 7.64063 68.1602 6.58594 67.1172 6.04688C66.5312 5.74219 65.6523 5.58984 64.4805 5.58984H58.1875ZM65.6055 1.08984C67.4219 1.125 68.8164 1.34766 69.7891 1.75781C70.7734 2.16797 71.6055 2.77148 72.2852 3.56836C72.8477 4.22461 73.293 4.95117 73.6211 5.74805C73.9492 6.54492 74.1133 7.45312 74.1133 8.47266C74.1133 9.70312 73.8027 10.916 73.1816 12.1113C72.5605 13.2949 71.5352 14.1328 70.1055 14.625C71.3008 15.1055 72.1445 15.791 72.6367 16.6816C73.1406 17.5605 73.3926 18.9082 73.3926 20.7246V22.4648C73.3926 23.6484 73.4395 24.4512 73.5332 24.873C73.6738 25.541 74.002 26.0332 74.5176 26.3496V27H68.5586C68.3945 26.4258 68.2773 25.9629 68.207 25.6113C68.0664 24.8848 67.9902 24.1406 67.9785 23.3789L67.9434 20.9707C67.9199 19.3184 67.6152 18.2168 67.0293 17.666C66.4551 17.1152 65.3711 16.8398 63.7773 16.8398H58.1875V27H52.8965V1.08984H65.6055ZM97.6152 1.08984V5.67773H89.8633V27H84.4141V5.67773H76.627V1.08984H97.6152ZM100.797 1.125H119.166V5.67773H106.176V11.6367H117.549V16.1367H106.176V27H100.797V1.125ZM134.266 23.1328C136.41 23.1328 138.109 22.3418 139.363 20.7598C140.629 19.1777 141.262 16.9277 141.262 14.0098C141.262 11.1035 140.629 8.85938 139.363 7.27734C138.109 5.68359 136.41 4.88672 134.266 4.88672C132.121 4.88672 130.41 5.67773 129.133 7.25977C127.855 8.8418 127.217 11.0918 127.217 14.0098C127.217 16.9277 127.855 19.1777 129.133 20.7598C130.41 22.3418 132.121 23.1328 134.266 23.1328ZM146.676 14.0098C146.676 18.6621 145.369 22.2246 142.756 24.6973C140.799 26.7129 137.969 27.7207 134.266 27.7207C130.562 27.7207 127.732 26.7129 125.775 24.6973C123.15 22.2246 121.838 18.6621 121.838 14.0098C121.838 9.26367 123.15 5.70117 125.775 3.32227C127.732 1.30664 130.562 0.298828 134.266 0.298828C137.969 0.298828 140.799 1.30664 142.756 3.32227C145.369 5.70117 146.676 9.26367 146.676 14.0098ZM150.824 1.08984H156.238V22.3418H169.07V27H150.824V1.08984ZM177.789 27H172.41V1.08984H177.789V27ZM194.312 23.1328C196.457 23.1328 198.156 22.3418 199.41 20.7598C200.676 19.1777 201.309 16.9277 201.309 14.0098C201.309 11.1035 200.676 8.85938 199.41 7.27734C198.156 5.68359 196.457 4.88672 194.312 4.88672C192.168 4.88672 190.457 5.67773 189.18 7.25977C187.902 8.8418 187.264 11.0918 187.264 14.0098C187.264 16.9277 187.902 19.1777 189.18 20.7598C190.457 22.3418 192.168 23.1328 194.312 23.1328ZM206.723 14.0098C206.723 18.6621 205.416 22.2246 202.803 24.6973C200.846 26.7129 198.016 27.7207 194.312 27.7207C190.609 27.7207 187.779 26.7129 185.822 24.6973C183.197 22.2246 181.885 18.6621 181.885 14.0098C181.885 9.26367 183.197 5.70117 185.822 3.32227C187.779 1.30664 190.609 0.298828 194.312 0.298828C198.016 0.298828 200.846 1.30664 202.803 3.32227C205.416 5.70117 206.723 9.26367 206.723 14.0098Z" fill="white"/>
</svg>
